<svg width="64" height="64" viewBox="0 0 64 64" fill="none" xmlns="http://www.w3.org/2000/svg">
<path d="M5.16132 6.19355H36.1291V13.4194C36.1291 13.9904 36.5902 14.4516 37.1613 14.4516H44.3871V22.7097H46.4516V13.4194C46.4516 13.1336 46.3352 12.8755 46.1482 12.6885L37.8932 4.43347C37.7052 4.24546 37.4471 4.12903 37.1613 4.12903H9.29035V2.06452H48.5162V24.7742H50.5807V1.03226C50.5807 0.46119 50.1195 0 49.5484 0H8.25809C7.68702 0 7.22583 0.46119 7.22583 1.03226V4.12903H4.12906C3.55799 4.12903 3.0968 4.59022 3.0968 5.16129V62.9677C3.0968 63.5388 3.55799 64 4.12906 64H39.2258V61.9355H5.16132V6.19355ZM38.1936 7.65323L42.9274 12.3871H38.1936V7.65323Z" fill="#77EF99"/>
<path d="M59.871 30.9677H58.3166C53.7072 30.9677 49.372 28.9375 46.4219 25.3977L46.2133 25.1467C45.8221 24.6749 45.0177 24.6749 44.6266 25.1467L44.4179 25.3967C41.4668 28.9375 37.1316 30.9677 32.5222 30.9677H30.9678C30.3967 30.9677 29.9355 31.4289 29.9355 32V48.7183C29.9355 52.7833 32.1281 56.5615 35.6573 58.5776L44.9073 63.8639C45.0656 63.9546 45.243 64 45.4194 64C45.5958 64 45.7732 63.9546 45.9315 63.8639L55.1815 58.5776C58.7108 56.5615 60.9033 52.7833 60.9033 48.7183V32C60.9033 31.4289 60.4421 30.9677 59.871 30.9677ZM58.8388 48.7183C58.8388 52.0444 57.0459 55.1351 54.1573 56.7843L45.4194 61.7797L36.6815 56.7858C33.7929 55.1351 32.0001 52.0444 32.0001 48.7183V33.0323H32.5222C37.4481 33.0323 42.0999 30.9854 45.4194 27.3846C48.738 30.9854 53.3907 33.0323 58.3166 33.0323H58.8388V48.7183Z" fill="#77EF99"/>
<path d="M45.4193 34.0645C39.1587 34.0645 34.0645 39.1588 34.0645 45.4194C34.0645 51.6799 39.1587 56.7742 45.4193 56.7742C51.6799 56.7742 56.7741 51.6799 56.7741 45.4194C56.7741 39.1588 51.6799 34.0645 45.4193 34.0645ZM45.4193 54.7097C40.2963 54.7097 36.129 50.5423 36.129 45.4194C36.129 40.2964 40.2963 36.129 45.4193 36.129C50.5423 36.129 54.7096 40.2964 54.7096 45.4194C54.7096 50.5423 50.5423 54.7097 45.4193 54.7097Z" fill="#77EF99"/>
<path d="M44.9269 48.6285L43.0525 46.754L41.5928 48.2137L44.6895 51.3105C44.8846 51.5066 45.1487 51.6129 45.4194 51.6129C45.5031 51.6129 45.5877 51.6028 45.6714 51.5822C46.0242 51.493 46.303 51.2248 46.4083 50.877L49.5051 40.5544L47.5273 39.9617L44.9269 48.6285Z" fill="#77EF99"/>
<path d="M7.22583 16.5161H34.0645V18.5806H7.22583V16.5161Z" fill="#77EF99"/>
<path d="M7.22583 20.6452H34.0645V22.7097H7.22583V20.6452Z" fill="#77EF99"/>
<path d="M7.22583 24.7742H34.0645V26.8387H7.22583V24.7742Z" fill="#77EF99"/>
<path d="M7.22583 28.9032H27.871V30.9677H7.22583V28.9032Z" fill="#77EF99"/>
<path d="M7.22583 33.0323H27.871V35.0968H7.22583V33.0323Z" fill="#77EF99"/>
<path d="M7.22583 37.1613H27.871V39.2258H7.22583V37.1613Z" fill="#77EF99"/>
<path d="M7.22583 49.5484H27.871V51.6129H7.22583V49.5484Z" fill="#77EF99"/>
<path d="M7.22583 53.6774H27.871V55.7419H7.22583V53.6774Z" fill="#77EF99"/>
<path d="M7.22583 57.8065H27.871V59.871H7.22583V57.8065Z" fill="#77EF99"/>
<path d="M8.25806 8.25806H10.3226V10.3226H8.25806V8.25806Z" fill="#77EF99"/>
<path d="M12.3871 8.25806H14.4516V10.3226H12.3871V8.25806Z" fill="#77EF99"/>
<path d="M16.5161 8.25806H18.5806V10.3226H16.5161V8.25806Z" fill="#77EF99"/>
<path d="M20.6451 8.25806H34.0645V10.3226H20.6451V8.25806Z" fill="#77EF99"/>
</svg>
