<svg width="64" height="64" viewBox="0 0 64 64" fill="none" xmlns="http://www.w3.org/2000/svg">
<path d="M59.5197 28.9204L57.8624 22.291C58.3155 22.1947 58.6555 21.7927 58.6555 21.3111V20.2422C58.6555 17.9215 56.7674 16.0335 54.4467 16.0335H46.8977V13.8287C46.8977 12.6867 45.9688 11.7577 44.8267 11.7577H6.3465C5.2045 11.7577 4.2755 12.6867 4.2755 13.8287V32C4.2755 32.5534 4.72412 33.0021 5.27762 33.0021C5.831 33.0021 6.27975 32.5535 6.27975 32V13.8287C6.27975 13.7919 6.30962 13.762 6.3465 13.762H44.8266C44.8635 13.762 44.8934 13.7919 44.8934 13.8287V32.0002C44.8934 32.5536 45.342 33.0024 45.8955 33.0024C46.4489 33.0024 46.8976 32.5537 46.8976 32.0002V30.8642H58.7187C58.7197 30.8642 58.7205 30.8645 58.7214 30.8645C58.7224 30.8645 58.7232 30.8644 58.7241 30.8644C60.1787 30.8654 61.4139 31.8201 61.8381 33.1357H58.7221C58.1687 33.1357 57.72 33.5844 57.72 34.1379V36.2756C57.72 38.007 59.1285 39.4155 60.8599 39.4155H61.9956V43.8246H59.3754C58.5146 41.3392 56.152 39.549 53.3776 39.549C50.6032 39.549 48.2405 41.3392 47.3799 43.8246H46.8974V36.2755C46.8974 35.7221 46.4487 35.2734 45.8952 35.2734C45.3419 35.2734 44.8931 35.722 44.8931 36.2755V43.8244H24.1021C23.2414 41.339 20.8787 39.5487 18.1044 39.5487C15.33 39.5487 12.9672 41.339 12.1066 43.8244H6.3465C6.30962 43.8244 6.27975 43.7945 6.27975 43.7576V41.553H10.6221C11.1755 41.553 11.6242 41.1044 11.6242 40.5509C11.6242 39.9974 11.1756 39.5487 10.6221 39.5487H1.00212C0.44875 39.5487 0 39.9974 0 40.5509C0 41.1044 0.448625 41.553 1.00212 41.553H4.27562V43.7576C4.27562 44.8996 5.20462 45.8286 6.34662 45.8286H11.7596C11.7594 45.8509 11.7579 45.873 11.7579 45.8954C11.7579 49.3949 14.605 52.2419 18.1044 52.2419C21.6038 52.2419 24.4509 49.3949 24.4509 45.8954C24.4509 45.8729 24.4494 45.8509 24.4491 45.8286H47.0329C47.0326 45.8509 47.0311 45.873 47.0311 45.8954C47.0311 49.3949 49.8782 52.2419 53.3776 52.2419C56.877 52.2419 59.7241 49.3949 59.7241 45.8954C59.7241 45.8729 59.7226 45.8509 59.7224 45.8286H62.9977C63.5511 45.8286 63.9999 45.38 63.9999 44.8265V34.1376C64 31.4986 62.0529 29.306 59.5197 28.9204ZM46.8977 18.0376H54.4467C55.6624 18.0376 56.6514 19.0266 56.6514 20.2422V20.309H46.8977V18.0376ZM46.8977 28.8601V22.3131H55.8021L57.4389 28.8601H46.8977ZM18.1044 50.238C15.71 50.238 13.762 48.2901 13.762 45.8956C13.762 43.5011 15.71 41.5532 18.1044 41.5532C20.4987 41.5532 22.4467 43.5011 22.4467 45.8956C22.4467 48.2901 20.4987 50.238 18.1044 50.238ZM53.3779 50.238C50.9835 50.238 49.0355 48.2901 49.0355 45.8956C49.0355 43.5011 50.9835 41.5532 53.3779 41.5532C55.7722 41.5532 57.7202 43.5011 57.7202 45.8956C57.7202 48.2901 55.7722 50.238 53.3779 50.238ZM61.9959 37.4112H60.8601C60.2339 37.4112 59.7244 36.9017 59.7244 36.2755V35.1397H61.9957V37.4112H61.9959Z" fill="#77EF99"/>
<path d="M18.1045 43.8246C16.9624 43.8246 16.0334 44.7536 16.0334 45.8956C16.0334 47.0376 16.9624 47.9666 18.1045 47.9666C19.2465 47.9666 20.1755 47.0376 20.1755 45.8956C20.1755 44.7536 19.2465 43.8246 18.1045 43.8246Z" fill="#77EF99"/>
<path d="M53.378 43.8246C52.236 43.8246 51.307 44.7536 51.307 45.8956C51.307 47.0376 52.236 47.9666 53.378 47.9666C54.52 47.9666 55.449 47.0376 55.449 45.8956C55.449 44.7536 54.52 43.8246 53.378 43.8246Z" fill="#77EF99"/>
<path d="M41.6199 39.5491H26.6554C26.1021 39.5491 25.6533 39.9978 25.6533 40.5513C25.6533 41.1048 26.1019 41.5534 26.6554 41.5534H41.6199C42.1733 41.5534 42.6221 41.1048 42.6221 40.5513C42.6221 39.9978 42.1734 39.5491 41.6199 39.5491Z" fill="#77EF99"/>
<path d="M15.9666 35.2735H3.13982C2.58645 35.2735 2.1377 35.7221 2.1377 36.2756C2.1377 36.8291 2.58632 37.2777 3.13982 37.2777H15.9666C16.5199 37.2777 16.9687 36.8291 16.9687 36.2756C16.9687 35.7221 16.5199 35.2735 15.9666 35.2735Z" fill="#77EF99"/>
<path d="M34.8463 21.6712C34.4551 21.28 33.8204 21.28 33.4292 21.6714L24.5177 30.5827L19.8818 25.9469C19.4904 25.5555 18.8559 25.5555 18.4647 25.9469C18.0733 26.3382 18.0733 26.9726 18.4647 27.364L23.8092 32.7085C24.0048 32.9042 24.2613 33.002 24.5177 33.002C24.7741 33.002 25.0307 32.9042 25.2262 32.7085L34.8462 23.0885C35.2376 22.697 35.2376 22.0626 34.8463 21.6712Z" fill="#77EF99"/>
</svg>
