<svg width="64" height="64" viewBox="0 0 64 64" fill="none" xmlns="http://www.w3.org/2000/svg">
<path d="M27.3335 40C28.4375 40 29.3335 39.104 29.3335 38V26C29.3335 24.896 28.4375 24 27.3335 24H25.3335C24.2295 24 23.3335 24.896 23.3335 26C23.3335 27.104 24.2295 28 25.3335 28V38C25.3335 39.104 26.2295 40 27.3335 40Z" fill="#77EF99"/>
<path d="M40.6665 40C43.2402 40 45.3335 37.9067 45.3335 35.3335V28.6665C45.3335 26.0933 43.2402 24 40.6665 24H39.3335C36.7598 24 34.6665 26.0933 34.6665 28.6665V35.3335C34.6665 37.9067 36.7598 40 39.3335 40H40.6665ZM38.6665 35.3335V28.6665C38.6665 28.2988 38.9653 28 39.3335 28H40.6665C41.0347 28 41.3335 28.2988 41.3335 28.6665V35.3335C41.3335 35.7012 41.0347 36 40.6665 36H39.3335C38.9653 36 38.6665 35.7012 38.6665 35.3335Z" fill="#77EF99"/>
<path d="M32 0C20.8721 0 10.1733 5.62646 4 14.0908V7.3335C4 6.22949 3.104 5.3335 2 5.3335C0.895996 5.3335 0 6.22949 0 7.3335V22C0 22.0186 0.0107422 22.0347 0.0107422 22.0562C0.0161132 22.208 0.0615235 22.3491 0.0986328 22.4932C0.12793 22.6025 0.13623 22.7148 0.181152 22.8159C0.234863 22.9331 0.322754 23.0293 0.399902 23.1387C0.472168 23.2402 0.530762 23.3521 0.621094 23.4375C0.701172 23.5146 0.805176 23.5601 0.898438 23.624C1.02393 23.7095 1.14111 23.7998 1.28271 23.8535C1.30127 23.8613 1.31201 23.8745 1.32812 23.8799C1.43994 23.9229 1.55176 23.9121 1.6665 23.9331C1.77881 23.9521 1.88281 24 2 24H16.6509C17.7549 24 18.6509 23.104 18.6509 22C18.6509 20.896 17.7549 20 16.6509 20H5.05078C9.77051 10.5864 20.624 4 32 4C47.4399 4 60 16.5601 60 32C60 47.4399 47.4399 60 32 60C24.5122 60 17.4878 57.0825 12.2158 51.7896C11.4375 51.0054 10.1709 51.0054 9.38672 51.7842C8.60547 52.5625 8.6001 53.8291 9.38135 54.6133C15.4053 60.6665 23.4399 64 32 64C49.6455 64 64 49.6455 64 32C64 14.3545 49.6455 0 32 0Z" fill="#77EF99"/>
</svg>
