<svg width="64" height="64" viewBox="0 0 64 64" fill="none" xmlns="http://www.w3.org/2000/svg">
<g clip-path="url(#clip0)">
<path d="M57.7677 28.4357C56.9547 27.6275 55.6418 27.6275 54.8288 28.4357L48.5757 34.6888L51.5146 37.6278L53.995 35.1474C52.2568 48.8516 39.7382 58.5519 26.034 56.8136C12.3298 55.0754 2.62956 42.5568 4.36779 28.8526C5.95348 16.352 16.5904 6.98277 29.1911 6.98759V2.81885C13.0747 2.81338 0.00547318 15.8738 1.71852e-06 31.9901C-0.00546975 48.1064 13.0549 61.1757 29.1713 61.1812C44.2015 61.1862 56.777 49.7741 58.2263 34.8139L61.061 37.6486L64 34.7097L57.7677 28.4357Z" fill="#77EF99"/>
<path d="M29.1911 21.5782V32C29.1878 32.554 29.4054 33.0865 29.7955 33.4799L36.0486 39.733L38.9876 36.794L33.3598 31.1454V21.5782H29.1911Z" fill="#77EF99"/>
</g>
<defs>
<clipPath id="clip0">
<rect width="64" height="64" fill="white"/>
</clipPath>
</defs>
</svg>
