<svg width="215" height="80" viewBox="0 0 215 80" fill="none" xmlns="http://www.w3.org/2000/svg">
<rect width="89.5776" height="80" rx="10" fill="#060606"/>
<path d="M31.4355 42.8147L27.6755 46.7347V53.8147H21.2355V25.8147H27.6755V38.8947L40.0755 25.8147H47.2755L35.6755 38.2947L47.9555 53.8147H40.3955L31.4355 42.8147ZM54.7308 31.0947H45.7708V25.8147H70.1708V31.0947H61.2108V53.8147H54.7308V31.0947Z" fill="white"/>
<path d="M117.027 54.2947C114.814 54.2947 112.667 54.0014 110.587 53.4147C108.534 52.8014 106.881 52.0147 105.627 51.0547L107.827 46.1747C109.027 47.0547 110.454 47.7614 112.107 48.2947C113.761 48.828 115.414 49.0947 117.067 49.0947C118.907 49.0947 120.267 48.828 121.147 48.2947C122.027 47.7347 122.467 47.0014 122.467 46.0947C122.467 45.428 122.201 44.8814 121.667 44.4547C121.161 44.0014 120.494 43.6414 119.667 43.3747C118.867 43.108 117.774 42.8147 116.387 42.4947C114.254 41.988 112.507 41.4814 111.147 40.9747C109.787 40.468 108.614 39.6547 107.627 38.5347C106.667 37.4147 106.187 35.9214 106.187 34.0547C106.187 32.428 106.627 30.9614 107.507 29.6547C108.387 28.3214 109.707 27.268 111.467 26.4947C113.254 25.7214 115.427 25.3347 117.987 25.3347C119.774 25.3347 121.521 25.548 123.227 25.9747C124.934 26.4014 126.427 27.0147 127.707 27.8147L125.707 32.7347C123.121 31.268 120.534 30.5347 117.947 30.5347C116.134 30.5347 114.787 30.828 113.907 31.4147C113.054 32.0014 112.627 32.7747 112.627 33.7347C112.627 34.6947 113.121 35.4147 114.107 35.8947C115.121 36.348 116.654 36.8014 118.707 37.2547C120.841 37.7614 122.587 38.268 123.947 38.7747C125.307 39.2814 126.467 40.0814 127.427 41.1747C128.414 42.268 128.907 43.748 128.907 45.6147C128.907 47.2147 128.454 48.6814 127.547 50.0147C126.667 51.3214 125.334 52.3614 123.547 53.1347C121.761 53.908 119.587 54.2947 117.027 54.2947ZM146.775 52.7747C146.162 53.228 145.402 53.5747 144.495 53.8147C143.615 54.028 142.682 54.1347 141.695 54.1347C139.135 54.1347 137.148 53.4814 135.735 52.1747C134.348 50.868 133.655 48.948 133.655 46.4147V37.5747H130.335V32.7747H133.655V27.5347H139.895V32.7747H145.255V37.5747H139.895V46.3347C139.895 47.2414 140.122 47.948 140.575 48.4547C141.055 48.9347 141.722 49.1747 142.575 49.1747C143.562 49.1747 144.402 48.908 145.095 48.3747L146.775 52.7747ZM156.238 35.1347C156.984 34.0947 157.984 33.308 159.238 32.7747C160.518 32.2414 161.984 31.9747 163.638 31.9747V37.7347C162.944 37.6814 162.478 37.6547 162.238 37.6547C160.451 37.6547 159.051 38.1614 158.038 39.1747C157.024 40.1614 156.518 41.6547 156.518 43.6547V53.8147H150.278V32.2947H156.238V35.1347ZM177.393 54.1347C175.126 54.1347 173.086 53.668 171.273 52.7347C169.486 51.7747 168.086 50.4547 167.073 48.7747C166.059 47.0947 165.553 45.188 165.553 43.0547C165.553 40.9214 166.059 39.0147 167.073 37.3347C168.086 35.6547 169.486 34.348 171.273 33.4147C173.086 32.4547 175.126 31.9747 177.393 31.9747C179.659 31.9747 181.686 32.4547 183.473 33.4147C185.259 34.348 186.659 35.6547 187.673 37.3347C188.686 39.0147 189.193 40.9214 189.193 43.0547C189.193 45.188 188.686 47.0947 187.673 48.7747C186.659 50.4547 185.259 51.7747 183.473 52.7347C181.686 53.668 179.659 54.1347 177.393 54.1347ZM177.393 49.0147C178.993 49.0147 180.299 48.4814 181.313 47.4147C182.353 46.3214 182.873 44.868 182.873 43.0547C182.873 41.2414 182.353 39.8014 181.313 38.7347C180.299 37.6414 178.993 37.0947 177.393 37.0947C175.793 37.0947 174.473 37.6414 173.433 38.7347C172.393 39.8014 171.873 41.2414 171.873 43.0547C171.873 44.868 172.393 46.3214 173.433 47.4147C174.473 48.4814 175.793 49.0147 177.393 49.0147ZM214.138 32.2947L204.418 55.1347C203.431 57.6147 202.204 59.3614 200.738 60.3747C199.298 61.388 197.551 61.8947 195.498 61.8947C194.378 61.8947 193.271 61.7214 192.178 61.3747C191.084 61.028 190.191 60.548 189.498 59.9347L191.778 55.4947C192.258 55.9214 192.804 56.2547 193.418 56.4947C194.058 56.7347 194.684 56.8547 195.298 56.8547C196.151 56.8547 196.844 56.6414 197.378 56.2147C197.911 55.8147 198.391 55.1347 198.818 54.1747L198.898 53.9747L189.578 32.2947H196.018L202.058 46.8947L208.138 32.2947H214.138Z" fill="black"/>
<line x1="104.464" y1="78.5122" x2="214" y2="78.5122" stroke="black"/>
</svg>
